<svg version="1.1" id="Layer_1" xmlns="http://www.w3.org/2000/svg" xmlns:xlink="http://www.w3.org/1999/xlink" x="0px" y="0px"
	 width="100%" viewBox="0 0 1024 1024" enable-background="new 0 0 1024 1024" xml:space="preserve">
<path fill="#05B2AC" opacity="1.000000" stroke="none" 
	d="
M479.000000,1025.000000 
	C319.333344,1025.000000 160.166672,1025.000000 1.000000,1025.000000 
	C1.000000,683.666687 1.000000,342.333344 1.000000,1.000000 
	C342.333344,1.000000 683.666687,1.000000 1025.000000,1.000000 
	C1025.000000,342.333344 1025.000000,683.666687 1025.000000,1025.000000 
	C843.166687,1025.000000 661.333313,1025.000000 479.000000,1025.000000 
M618.974792,466.493286 
	C614.240540,470.252075 609.506287,474.010834 604.769470,477.771667 
	C606.588196,460.390900 608.584351,443.614288 610.048767,426.791412 
	C612.352600,400.325409 611.635803,373.890533 606.815430,347.744171 
	C595.769409,287.830048 564.584290,240.683655 515.206116,205.410645 
	C505.137848,198.218430 494.332306,192.186096 481.958160,187.725494 
	C482.288513,189.288620 482.505829,190.191956 482.668396,191.105057 
	C484.436157,201.037338 487.184814,210.912598 487.776764,220.915222 
	C489.786224,254.870850 482.440125,286.737213 464.818695,316.111359 
	C447.311981,345.294312 424.597595,370.247467 401.578674,394.984924 
	C375.607178,422.895416 350.409760,451.427734 328.559784,482.793335 
	C296.381134,528.985657 279.288483,579.034668 288.034698,636.010193 
	C292.694794,666.367432 302.085114,694.978760 319.801636,720.334229 
	C346.490479,758.530579 382.949921,783.908875 426.271698,799.851440 
	C436.711029,803.693176 447.560333,806.420898 458.221100,809.660889 
	C458.464844,809.183716 458.708588,808.706482 458.952332,808.229248 
	C453.184113,802.526245 447.132721,797.079163 441.703217,791.070068 
	C427.919464,775.815002 416.221985,759.125488 409.877319,739.336243 
	C399.403809,706.668884 399.455750,673.358765 407.591919,640.509583 
	C422.320526,581.043945 454.162079,531.391846 498.333862,489.386597 
	C501.898041,485.997192 505.856873,483.022797 510.306213,479.290222 
	C510.027130,481.797241 509.940521,483.285645 509.686829,484.745026 
	C506.801453,501.344879 507.076050,517.805908 511.745178,534.090698 
	C519.528870,561.237976 535.112488,583.750183 553.812500,604.319702 
	C567.899780,619.815308 583.128418,634.306702 594.020325,652.490417 
	C608.663330,676.936523 617.234497,703.000610 612.765259,731.675659 
	C608.049377,761.933716 593.312622,787.097168 570.447449,807.478149 
	C569.105896,808.674011 567.829651,809.943176 566.523010,811.178223 
	C568.101074,811.837097 569.064636,811.736023 570.008484,811.540222 
	C591.138306,807.159424 610.743896,798.824280 629.284912,788.022156 
	C673.124390,762.480774 707.460876,728.230408 727.182922,680.607361 
	C743.226318,641.867249 744.890686,601.745056 737.552917,561.224121 
	C727.953430,508.213715 708.020996,458.959045 679.884644,413.044647 
	C675.701050,406.217712 671.003906,399.705475 666.129333,392.427948 
	C657.244629,422.160095 641.145508,445.856628 618.974792,466.493286 
z"/>
<path fill="#FFFFFF" opacity="1.000000" stroke="none" 
	d="
M619.234436,466.249634 
	C641.145508,445.856628 657.244629,422.160095 666.129333,392.427948 
	C671.003906,399.705475 675.701050,406.217712 679.884644,413.044647 
	C708.020996,458.959045 727.953430,508.213715 737.552917,561.224121 
	C744.890686,601.745056 743.226318,641.867249 727.182922,680.607361 
	C707.460876,728.230408 673.124390,762.480774 629.284912,788.022156 
	C610.743896,798.824280 591.138306,807.159424 570.008484,811.540222 
	C569.064636,811.736023 568.101074,811.837097 566.523010,811.178223 
	C567.829651,809.943176 569.105896,808.674011 570.447449,807.478149 
	C593.312622,787.097168 608.049377,761.933716 612.765259,731.675659 
	C617.234497,703.000610 608.663330,676.936523 594.020325,652.490417 
	C583.128418,634.306702 567.899780,619.815308 553.812500,604.319702 
	C535.112488,583.750183 519.528870,561.237976 511.745178,534.090698 
	C507.076050,517.805908 506.801453,501.344879 509.686829,484.745026 
	C509.940521,483.285645 510.027130,481.797241 510.306213,479.290222 
	C505.856873,483.022797 501.898041,485.997192 498.333862,489.386597 
	C454.162079,531.391846 422.320526,581.043945 407.591919,640.509583 
	C399.455750,673.358765 399.403809,706.668884 409.877319,739.336243 
	C416.221985,759.125488 427.919464,775.815002 441.703217,791.070068 
	C447.132721,797.079163 453.184113,802.526245 458.952332,808.229248 
	C458.708588,808.706482 458.464844,809.183716 458.221100,809.660889 
	C447.560333,806.420898 436.711029,803.693176 426.271698,799.851440 
	C382.949921,783.908875 346.490479,758.530579 319.801636,720.334229 
	C302.085114,694.978760 292.694794,666.367432 288.034698,636.010193 
	C279.288483,579.034668 296.381134,528.985657 328.559784,482.793335 
	C350.409760,451.427734 375.607178,422.895416 401.578674,394.984924 
	C424.597595,370.247467 447.311981,345.294312 464.818695,316.111359 
	C482.440125,286.737213 489.786224,254.870850 487.776764,220.915222 
	C487.184814,210.912598 484.436157,201.037338 482.668396,191.105057 
	C482.505829,190.191956 482.288513,189.288620 481.958160,187.725494 
	C494.332306,192.186096 505.137848,198.218430 515.206116,205.410645 
	C564.584290,240.683655 595.769409,287.830048 606.815430,347.744171 
	C611.635803,373.890533 612.352600,400.325409 610.048767,426.791412 
	C608.584351,443.614288 606.588196,460.390900 604.769470,477.771667 
	C609.506287,474.010834 614.240540,470.252075 619.234436,466.249634 
z"/>
</svg>